<svg xmlns="http://www.w3.org/2000/svg" width="22" height="22" viewBox="0 0 22 22"><path d="M6.445.077a8.023 8.023 0 00-2.669.52A5.626 5.626 0 00.565 3.815a8.082 8.082 0 00-.506 2.672C.007 7.658-.004 8.034.002 11.022s.019 3.362.076 4.535a8.041 8.041 0 00.517 2.668 5.623 5.623 0 003.223 3.211 8.075 8.075 0 002.671.506c1.171.051 1.548.063 4.534.057s3.362-.019 4.536-.075a8.048 8.048 0 002.667-.516 5.622 5.622 0 003.21-3.223 8.046 8.046 0 00.506-2.67c.051-1.174.063-1.549.058-4.536s-.019-3.361-.075-4.534a8.034 8.034 0 00-.516-2.669 5.4 5.4 0 00-1.272-1.946A5.368 5.368 0 0018.186.565a8.05 8.05 0 00-2.671-.506C14.344.008 13.967-.005 10.98.001S7.619.019 6.445.077m.128 19.886a6.1 6.1 0 01-2.043-.374 3.425 3.425 0 01-1.267-.82 3.388 3.388 0 01-.825-1.263 6.092 6.092 0 01-.382-2.042c-.055-1.159-.066-1.507-.072-4.444s0-3.284.056-4.444a6.088 6.088 0 01.374-2.043A3.641 3.641 0 014.501 2.44a6.091 6.091 0 012.041-.382c1.16-.055 1.508-.066 4.444-.072s3.285 0 4.445.056a6.083 6.083 0 012.042.374 3.642 3.642 0 012.089 2.081 6.06 6.06 0 01.382 2.041c.055 1.16.068 1.508.073 4.444s-.005 3.285-.056 4.444a6.112 6.112 0 01-.374 2.044 3.643 3.643 0 01-2.086 2.093 6.093 6.093 0 01-2.041.383c-1.16.055-1.508.066-4.445.072s-3.284-.005-4.444-.056m8.97-14.841a1.32 1.32 0 101.317-1.324 1.32 1.32 0 00-1.317 1.324m-10.189 5.89a5.648 5.648 0 105.637-5.659 5.648 5.648 0 00-5.637 5.659m1.981 0a3.667 3.667 0 113.674 3.66 3.667 3.667 0 01-3.674-3.66"/></svg>