<svg xmlns="http://www.w3.org/2000/svg" width="191.385" height="59.82" viewBox="0 0 191.385 59.82"><path data-name="長方形 1" d="M1.417 19.456h13.131a1.417 1.417 0 011.417 1.417v37.528a1.418 1.418 0 01-1.418 1.418H1.418A1.418 1.418 0 010 58.401V20.873a1.417 1.417 0 011.417-1.417z" fill="#adaeae"/><path data-name="長方形 2" d="M59.876 0h76.483a1.417 1.417 0 011.42 1.417v13.13a1.418 1.418 0 01-1.42 1.418H59.876a1.417 1.417 0 01-1.417-1.417V1.417A1.417 1.417 0 0159.876 0z" fill="#adaeae"/><path data-name="長方形 3" d="M94.025 31.702h49.594a1.417 1.417 0 011.417 1.417v25.283a1.418 1.418 0 01-1.418 1.418H94.025a1.417 1.417 0 01-1.417-1.418V33.119a1.417 1.417 0 011.417-1.417z" fill="#adaeae"/><path data-name="長方形 4" d="M162.189 0h27.783a1.417 1.417 0 011.417 1.417V42.8a1.418 1.418 0 01-1.418 1.418h-27.782a1.417 1.417 0 01-1.417-1.418V1.417A1.417 1.417 0 01162.189 0z" fill="#adaeae"/><path data-name="長方形 5" d="M1.417 0h13.131a1.417 1.417 0 011.417 1.417v13.13a1.418 1.418 0 01-1.418 1.418H1.418A1.418 1.418 0 010 14.547V1.417A1.417 1.417 0 011.417 0z" fill="#adaeae"/><path data-name="パス 1" d="M20.573 0a1.075 1.075 0 00-1.072 1.071v57.677a1.075 1.075 0 001.072 1.072h67.426a1.075 1.075 0 001.072-1.072V29.236a1.074 1.074 0 011.071-1.071h57.36a1.074 1.074 0 011.071 1.071v29.512a1.075 1.075 0 001.071 1.072h40.669a1.075 1.075 0 001.071-1.072v-9.92a1.074 1.074 0 00-1.071-1.071h-32.007a1.075 1.075 0 01-1.071-1.072V20.528a1.075 1.075 0 00-1.071-1.072H55.992a1.074 1.074 0 01-1.071-1.071V1.071A1.075 1.075 0 0053.849 0z" fill="#adaeae"/></svg>