<svg xmlns="http://www.w3.org/2000/svg" width="22" height="22" viewBox="0 0 22 22">
  <path id="icon-Instagram" d="M8.944,2.58A8.023,8.023,0,0,0,6.275,3.1,5.626,5.626,0,0,0,3.064,6.318,8.082,8.082,0,0,0,2.558,8.99c-.052,1.171-.063,1.547-.057,4.535s.019,3.362.076,4.535a8.041,8.041,0,0,0,.517,2.668,5.623,5.623,0,0,0,3.223,3.211,8.075,8.075,0,0,0,2.671.506c1.171.051,1.548.063,4.534.057s3.362-.019,4.536-.075a8.048,8.048,0,0,0,2.667-.516,5.622,5.622,0,0,0,3.21-3.223,8.046,8.046,0,0,0,.506-2.67c.051-1.174.063-1.549.058-4.536s-.019-3.361-.075-4.534a8.034,8.034,0,0,0-.516-2.669,5.4,5.4,0,0,0-1.272-1.946,5.368,5.368,0,0,0-1.951-1.265,8.05,8.05,0,0,0-2.671-.506c-1.171-.051-1.548-.064-4.535-.058s-3.361.018-4.535.076m.128,19.886a6.1,6.1,0,0,1-2.043-.374,3.425,3.425,0,0,1-1.267-.82,3.388,3.388,0,0,1-.825-1.263,6.092,6.092,0,0,1-.382-2.042c-.055-1.159-.066-1.507-.072-4.444s0-3.284.056-4.444a6.088,6.088,0,0,1,.374-2.043A3.641,3.641,0,0,1,7,4.943a6.091,6.091,0,0,1,2.041-.382c1.16-.055,1.508-.066,4.444-.072s3.285,0,4.445.056a6.083,6.083,0,0,1,2.042.374A3.642,3.642,0,0,1,22.061,7a6.06,6.06,0,0,1,.382,2.041c.055,1.16.068,1.508.073,4.444s-.005,3.285-.056,4.444a6.112,6.112,0,0,1-.374,2.044A3.643,3.643,0,0,1,20,22.066a6.093,6.093,0,0,1-2.041.383c-1.16.055-1.508.066-4.445.072s-3.284-.005-4.444-.056M18.04,7.624A1.32,1.32,0,1,0,19.357,6.3,1.32,1.32,0,0,0,18.04,7.624M7.851,13.514a5.648,5.648,0,1,0,5.637-5.659,5.648,5.648,0,0,0-5.637,5.659m1.981,0a3.667,3.667,0,1,1,3.674,3.66,3.667,3.667,0,0,1-3.674-3.66" transform="translate(-2.499 -2.503)"/>
</svg>
