<svg xmlns="http://www.w3.org/2000/svg" width="364.253" height="45.88" viewBox="0 0 364.253 45.88">
  <g id="logo" transform="translate(-25.466)">
    <g id="グループ_3" data-name="グループ 3">
      <g id="グループ_4" data-name="グループ 4" transform="translate(25.466)">
        <path id="長方形_1" data-name="長方形 1" d="M1.417,0h9.41a1.417,1.417,0,0,1,1.417,1.417V29.54a1.418,1.418,0,0,1-1.418,1.418H1.418A1.418,1.418,0,0,1,0,29.54V1.417A1.417,1.417,0,0,1,1.417,0Z" transform="translate(0 14.923)" fill="#adaeae"/>
        <path id="長方形_2" data-name="長方形 2" d="M1.417,0h58a1.417,1.417,0,0,1,1.417,1.417v9.409a1.418,1.418,0,0,1-1.418,1.418h-58A1.417,1.417,0,0,1,0,10.827V1.417A1.417,1.417,0,0,1,1.417,0Z" transform="translate(44.836 0)" fill="#adaeae"/>
        <path id="長方形_3" data-name="長方形 3" d="M1.417,0H38.794a1.417,1.417,0,0,1,1.417,1.417v18.73a1.418,1.418,0,0,1-1.418,1.418H1.417A1.417,1.417,0,0,1,0,20.148V1.417A1.417,1.417,0,0,1,1.417,0Z" transform="translate(71.028 24.315)" fill="#adaeae"/>
        <path id="長方形_4" data-name="長方形 4" d="M1.417,0H22.062a1.417,1.417,0,0,1,1.417,1.417V32.5a1.418,1.418,0,0,1-1.418,1.418H1.417A1.417,1.417,0,0,1,0,32.5V1.417A1.417,1.417,0,0,1,1.417,0Z" transform="translate(123.308 0)" fill="#adaeae"/>
        <path id="長方形_5" data-name="長方形 5" d="M1.417,0h9.41a1.417,1.417,0,0,1,1.417,1.417v9.409a1.418,1.418,0,0,1-1.418,1.418H1.418A1.418,1.418,0,0,1,0,10.826V1.417A1.417,1.417,0,0,1,1.417,0Z" transform="translate(0 0)" fill="#adaeae"/>
        <path id="パス_1" data-name="パス 1" d="M70.55,0a.824.824,0,0,0-.822.821V45.058a.824.824,0,0,0,.822.822h51.714a.824.824,0,0,0,.822-.822V22.423a.823.823,0,0,1,.821-.821H167.9a.823.823,0,0,1,.821.821V45.058a.824.824,0,0,0,.821.822h31.192a.824.824,0,0,0,.821-.822V37.45a.824.824,0,0,0-.821-.821H176.188a.824.824,0,0,1-.821-.822V15.744a.824.824,0,0,0-.821-.822H97.716a.824.824,0,0,1-.821-.821V.821A.824.824,0,0,0,96.072,0Z" transform="translate(-54.771 0)" fill="#adaeae"/>
      </g>
      <g id="グループ_5" data-name="グループ 5" transform="translate(192 3.13)">
        <path id="パス_2" data-name="パス 2" d="M1.244,128.732a9.185,9.185,0,0,0,2.216.158H6.986c.407-.43.52-.565.927-.972.588.474.747.61,1.289,1.085.158.18.227.271.227.339,0,.181-.136.249-.837.407a14.714,14.714,0,0,1-4.16,4.59,16.162,16.162,0,0,1-4.3,2.284L0,136.35a17.648,17.648,0,0,0,4.318-3.233,11.712,11.712,0,0,0,2.668-3.708H3.369a11.171,11.171,0,0,0-1.944.113Zm10.424-2.6a6.08,6.08,0,0,0,.724,2.216,10.582,10.582,0,0,0,1.334,1.945,23.521,23.521,0,0,0,4.16-3.731c1.786,1.062,2.057,1.243,2.057,1.4,0,.136-.181.248-.407.248-.09,0-.43-.023-.814-.067a32.1,32.1,0,0,1-4.749,2.441,11.375,11.375,0,0,0,2.419,1.923,13.269,13.269,0,0,0,5.043,1.831v.294a2.123,2.123,0,0,0-1.108.542,1.721,1.721,0,0,0-.611.972,9.875,9.875,0,0,1-3.052-1.673A13,13,0,0,1,12.707,130,10.6,10.6,0,0,1,11.44,127.1c.068,1.447.159,3.324.181,4.251v3.03c.023.249.023.656.023,1.153-.023,1.085-.43,1.4-2.623,1.968-.226-1.154-.746-1.424-2.962-1.628v-.362c1.741.067,2.261.09,3.731.09.248,0,.317-.067.317-.248v-9.226H5.494v.747c0,.317-.158.362-1.176.362-.226,0-.294-.045-.317-.2.045-1.741.068-3.527.068-5.9,0-1.333-.023-2.034-.068-3.142.814.43,1.063.565,1.855,1.062H9.247a9.563,9.563,0,0,0,.588-2.713,11.272,11.272,0,0,1,2.26.587c.181.068.272.159.272.249,0,.2-.272.294-1.13.406a10.667,10.667,0,0,1-1.424,1.47h5.72l.927-1.062c.61.452.791.588,1.4,1.062.181.159.249.272.249.362,0,.2-.136.293-.859.588v2.375c0,1.74,0,2.26.045,3.888,0,.227-.045.317-.226.385a4.842,4.842,0,0,1-1,.112c-.2,0-.293-.045-.293-.2v-.43Zm4.115-6.557H5.495v2.782H15.782ZM5.494,125.611H15.781v-2.736H5.494Z" transform="translate(0 -116.341)"/>
        <path id="パス_3" data-name="パス 3" d="M67.184,119.741a18.764,18.764,0,0,1,1.221-1.447c.837.678,1.108.9,1.944,1.673a.329.329,0,0,1,.113.18c0,.068-.068.114-.2.114H65.126c1.357.565,1.877.859,1.877,1.085,0,.158-.249.249-.791.249h-.226a15.15,15.15,0,0,1-2.08,2.238h4.68c.565-.724.746-.927,1.312-1.583.813.7,1.085.95,1.966,1.741a.448.448,0,0,1,.09.2.175.175,0,0,1-.181.158H53.64c-.362,0-1.583.113-1.967.181l-.271-.927a15.2,15.2,0,0,0,2.216.226h4.453c-.112-.159-.112-.159-.248-.678a8.821,8.821,0,0,0-1.2-2.713l.2-.181H54.884c-1.017.09-1.605.158-1.809.181l-.226-.859a20,20,0,0,0,2.012.158h5.811v-1.086a6.032,6.032,0,0,0-.136-1.379c.521.045.928.091,1.2.114,1.017.068,1.447.2,1.447.452,0,.2-.317.362-1.04.543v1.357Zm-5.156,15.646c0,.362.046.452.294.5.227.045,1.968.112,3.3.112a30.6,30.6,0,0,0,3.256-.112c.384-.068.52-.226.7-.769.317-.927.746-2.464,1.063-3.731l.317.045-.181,3.459v.294c0,.362.023.384.521.475a.507.507,0,0,1,.407.5c0,.859-1,1.086-4.636,1.086-4.092,0-5.223-.045-5.743-.249-.61-.227-.791-.565-.791-1.447v-2.532H55.744v1.108c0,.2-.023.249-.159.294a4.282,4.282,0,0,1-1.04.112c-.271,0-.362-.045-.362-.225.114-1.65.136-3.211.136-6.105,0-.724-.023-1.4-.114-2.871a10.036,10.036,0,0,1,1.922,1.041H66.754a6.767,6.767,0,0,1,.859-.95c.588.408.769.52,1.334.95.2.181.271.271.271.361a.308.308,0,0,1-.136.227c-.068.045-.181.136-.339.226a2.742,2.742,0,0,0-.362.226v1.131c0,.678,0,1.13.113,5.267-.023.272-.068.385-.2.453a3.349,3.349,0,0,1-.995.136c-.249,0-.339-.113-.339-.43v-.95H62.028Zm-1.492-8.5H55.743v2.464h4.793Zm0,2.984H55.743v2.622h4.793Zm-3.527-9.61c.339.295.339.295,1.379,1.13.588.475.928.95.928,1.267a2.446,2.446,0,0,1-.7,1.175h4.658a16.189,16.189,0,0,0,1.47-3.572Zm9.949,6.625H62.028v2.464h4.929Zm0,2.984H62.028v2.622h4.929Z" transform="translate(-21.603 -116.734)"/>
        <path id="パス_4" data-name="パス 4" d="M118.783,130.019c.519-.882.7-1.131,1.243-1.922,1.131.678,1.448.882,2.488,1.561.113.113.158.181.158.226,0,.068-.068.113-.181.136l-6.127.837c.023,3.8.023,5.946.045,6.444a.3.3,0,0,1-.18.249,6.492,6.492,0,0,1-1.176.136c-.226,0-.293-.068-.317-.249,0-.9.023-3.03.068-6.353l-10.31,1.4a6.122,6.122,0,0,0-1.448.34l-.2-.747h.18a12.971,12.971,0,0,0,1.47-.113l10.31-1.4v-6.105c0-3.165-.045-6.218-.114-7.258,2.51.317,2.6.34,2.6.611,0,.158-.181.271-.95.588v3.753c0,.226.023,5.517.023,8.185Zm-13.453-5.585a16.535,16.535,0,0,1,3.595,1.56c1.221.678,1.537,1.063,1.537,1.855s-.248,1.4-.61,1.4c-.2,0-.227-.023-.837-.814a16.681,16.681,0,0,0-3.822-3.731Zm2.171-4.884a25.793,25.793,0,0,1,3.8,1.877c.723.475,1.017.882,1.017,1.447,0,.882-.249,1.56-.611,1.56-.158,0-.271-.112-.452-.384a18.315,18.315,0,0,0-3.911-4.251Z" transform="translate(-43.222 -116.701)"/>
        <path id="パス_5" data-name="パス 5" d="M152.3,137.185a13.046,13.046,0,0,0,3.074-4.453,14.648,14.648,0,0,1-1.673-3.709,3.41,3.41,0,0,0-.588-1.312l.95-.293a1.067,1.067,0,0,0-.045.339,10.053,10.053,0,0,0,1.7,4.183,20.45,20.45,0,0,0,1.334-6.2h-2.17c-.113.181-.181.34-.249.43-.136.248-.271.316-.746.339h-.249c-.362,0-.565-.09-.565-.271v-.068a57.771,57.771,0,0,0,3.256-7.1h-2.329a4.969,4.969,0,0,0-1.289.158l-.2-.836c.2.023.7.09,1.493.158h2.329a11.283,11.283,0,0,1,.837-.972c.655.52.859.679,1.492,1.153.068.068.09.113.09.158,0,.158-.09.226-1.04.633-.9,2.239-1.379,3.3-2.577,5.7h1.831c.339-.452.452-.587.814-1.04.61.43.791.566,1.379,1.04.159.136.2.2.2.249,0,.112-.294.339-.9.678a18.023,18.023,0,0,1-1.877,6.782,6.215,6.215,0,0,0,1.764,1.267c1.674.859,3.731,1.22,6.873,1.22,2.262,0,4.635-.113,8.57-.362v.294a2.1,2.1,0,0,0-1.2.633,1.382,1.382,0,0,0-.293,1c-1.447.09-2.4.113-3.867.113-4.793,0-7.167-.317-9.338-1.289a9.178,9.178,0,0,1-2.962-2.1,11.448,11.448,0,0,1-3.6,3.709Zm19.06-15.058a15.338,15.338,0,0,1,.9-1.334,15.787,15.787,0,0,1,1.244,1.47.7.7,0,0,1,.113.249.13.13,0,0,1-.136.135h-2.442c0,.339.023.611.023.611,0,2.171,0,2.171.045,2.781,0,.316-.113.384-.724.429a3.822,3.822,0,0,1-.475.068h-.046c-.181,0-.271-.113-.271-.339v-.52h-3.437l.023,2.577h3.3c.475-.543.611-.724,1.063-1.289.792.588,1.063.791,1.9,1.515a.619.619,0,0,1,.09.158c0,.068-.09.136-.226.136h-6.127l.023,2.488h3.662c.543-.656.724-.837,1.2-1.47.746.633,1.017.882,1.9,1.628a.389.389,0,0,1,.068.158.223.223,0,0,1-.226.2h-6.6c0,1.492,0,2.035.022,2.826a.257.257,0,0,1-.158.181,9.823,9.823,0,0,1-1.108.091c-.159,0-.2-.045-.249-.159,0-.5,0-.5.045-2.375v-.565h-3.776a8.861,8.861,0,0,0-1.764.136l-.293-.791a9.712,9.712,0,0,0,2.057.136h3.8v-2.488H161.5a8.2,8.2,0,0,0-1.606.136l-.225-.86a11.817,11.817,0,0,0,1.831.2h3.278v-2.577H162.04a6.675,6.675,0,0,0-1.673.158l-.294-.859c.634.09,1.537.181,1.877.181h2.826v-2.51h-3.8a6.683,6.683,0,0,0-1.764.181l-.248-.9a10.588,10.588,0,0,0,2.012.2h3.776v-2.532h-2.962a8.044,8.044,0,0,0-1.335.114l-.249-.837a11.589,11.589,0,0,0,1.583.2h2.939c0-.859,0-.859-.068-2.148a11.965,11.965,0,0,1,2.147.339.189.189,0,0,1,.136.181c0,.2-.18.316-.836.5v1.13h3.482a8.585,8.585,0,0,1,.7-.972c.633.429.814.565,1.357.972a.239.239,0,0,1,.113.2.412.412,0,0,1-.113.249c-.023.023-.113.068-.271.181a1.911,1.911,0,0,0-.362.225v.611l.023.859v.724Zm-1.764-2.532h-3.459v2.532h3.459Zm-3.459,3.052.023,2.51h3.437v-2.51Z" transform="translate(-64.005 -116.587)"/>
        <path id="パス_6" data-name="パス 6" d="M210.629,119.251c.384-.452.746-.882,1.085-1.266.746.633.95.837,1.65,1.492a.285.285,0,0,1,.09.159c0,.09-.09.135-.249.135h-4.68c1.266.746,1.741,1.2,1.741,1.7,0,.452-.452,1.108-.769,1.108-.2,0-.294-.158-.408-.656a7.1,7.1,0,0,0-.949-2.148h-1.357a15.931,15.931,0,0,1-3.8,3.8l-.226-.2a14.878,14.878,0,0,0,2.8-4.092,8.717,8.717,0,0,0,.859-2.464c2.1.407,2.577.543,2.577.769,0,.2-.158.249-1.062.384a13.743,13.743,0,0,1-.791,1.289Zm9.292,11.644c.521-.633.656-.815,1.153-1.4.9.678,1.176.882,2.035,1.605a.318.318,0,0,1,.09.2c0,.068-.09.113-.18.113h-8.841a11.575,11.575,0,0,0,2.984,2.013,15.778,15.778,0,0,0,6.625,1.559v.339a1.526,1.526,0,0,0-1.041.543,1.656,1.656,0,0,0-.565.927,14.084,14.084,0,0,1-4.838-2.1,13.06,13.06,0,0,1-3.505-3.1v1.877c0,.791.045,2.6.09,3.708-.023.158-.045.226-.158.294a3.542,3.542,0,0,1-1.017.136.325.325,0,0,1-.362-.272c.09-2.691.09-2.736.09-3.866V132a17.785,17.785,0,0,1-5.156,3.505,23.294,23.294,0,0,1-4.318,1.627l-.135-.317a35.712,35.712,0,0,0,5.471-2.962,16.861,16.861,0,0,0,2.917-2.442H205.9a10.967,10.967,0,0,0-1.967.2l-.158-.95a8.2,8.2,0,0,0,2.125.226h6.58v-.475a13.465,13.465,0,0,0-.09-1.537c.836.09,1.854.226,2.1.271.158.045.249.112.249.225,0,.181-.249.295-.9.453V130.9Zm-13.815-7.145a7.763,7.763,0,0,0-1.447.159l-.158-.9a6.331,6.331,0,0,0,1.605.227h3.98c.361-.453.475-.588.859-1.018.588.543.769.7,1.289,1.244a.294.294,0,0,1,.067.158.2.2,0,0,1-.158.136H208.8v3.143c.994-.181,1.153-.226,3.165-.656l.068.294a36.787,36.787,0,0,1-3.957,1.334c-2.578.724-2.578.724-3.256.9-.09.655-.181.859-.362.859s-.18,0-.814-2.1a26.841,26.841,0,0,0,3.844-.43V123.75Zm13.544,3.663v.2c0,.181.294.271.859.271.837,0,1.131-.09,1.311-.406a19.986,19.986,0,0,0,.859-3.347l.317.023-.113,2.8a1.759,1.759,0,0,1-.023.249v.09c0,.227.068.295.316.34.294.068.475.248.475.5,0,.362-.294.61-.86.7a13.117,13.117,0,0,1-1.944.136,9.511,9.511,0,0,1-2.013-.113.961.961,0,0,1-.543-.928v-4.409h-3.8a9.559,9.559,0,0,1-.271,2.555,5.439,5.439,0,0,1-2.6,3.052,8.388,8.388,0,0,1-2.442,1.085l-.181-.271a7.989,7.989,0,0,0,3.369-2.668c.61-.926.814-1.921.814-3.979a8.8,8.8,0,0,0-.09-1.2c.723.385.95.5,1.6.9h3.55c.317-.362.407-.474.724-.814.61.452.61.452,1.154.859.18.136.248.227.248.294,0,.136-.226.294-.724.521Zm.521-8.163c.542-.678.7-.882,1.22-1.515.86.724,1.108.95,1.922,1.719.067.068.112.113.112.159,0,.068-.112.158-.181.158h-6.308c1.153.678,1.583,1.13,1.583,1.583,0,.52-.519,1.289-.837,1.289-.158,0-.249-.112-.294-.384a6.1,6.1,0,0,0-.859-2.487h-1.448a14.2,14.2,0,0,1-2.939,2.894l-.226-.226a11.811,11.811,0,0,0,2.147-3.257,7.749,7.749,0,0,0,.815-2.328c.837.18.837.18,2.035.43.271.068.43.158.43.271,0,.2-.249.294-1.063.384a11.346,11.346,0,0,1-.814,1.311Zm-5.246,5.427c1.606.859,2.6,1.808,2.6,2.486,0,.52-.43,1.2-.746,1.2-.18,0-.226-.068-.407-.588a8.493,8.493,0,0,0-1.56-2.94Z" transform="translate(-85.214 -116.538)"/>
        <path id="パス_7" data-name="パス 7" d="M253.85,121.077a10.208,10.208,0,0,0,2.42.226h4.115c.362-.43.746-.859,1.108-1.289.859.611,1.13.814,1.922,1.47a.7.7,0,0,1,.09.2c0,.09-.09.136-.249.136H256.27a10.533,10.533,0,0,0-2.216.159Zm.859-2.894a8.447,8.447,0,0,0,1.877.226h2.871c.475-.588.611-.747,1.086-1.289a22.828,22.828,0,0,1,1.808,1.492.637.637,0,0,1,.09.181c0,.09-.09.136-.225.136h-5.63a14.791,14.791,0,0,0-1.718.113ZM254.98,127a7.649,7.649,0,0,0,1.922.225h2.125a12.082,12.082,0,0,1,1.152-1.288c.769.61,1,.791,1.7,1.424a.932.932,0,0,1,.136.226.17.17,0,0,1-.158.159H256.9a11.338,11.338,0,0,0-1.742.112Zm.023-2.94a8.926,8.926,0,0,0,1.9.2h2.4c.385-.452.769-.881,1.131-1.312.769.634,1.017.837,1.718,1.493a.511.511,0,0,1,.09.2c0,.068-.09.136-.249.136H256.9a8.324,8.324,0,0,0-1.719.135Zm1.492,13.272c-.023.181-.09.226-.248.271a3.99,3.99,0,0,1-.746.068c-.34,0-.453-.09-.5-.339.067-2.51.067-3.052.067-3.957,0-1.2-.022-2.917-.067-4,.769.43.972.565,1.673,1.017h3.075c.271-.293.565-.61.859-.927a10.517,10.517,0,0,1,1.2.927.7.7,0,0,1,.271.385c0,.135-.09.2-.723.588-.022.52-.022.813-.022,1.153,0,.633.045,2.94.067,3.527-.023.159-.045.227-.158.272a2.95,2.95,0,0,1-1.041.158c-.271,0-.339-.068-.339-.271v-.362H256.5Zm0-2.013h3.369v-4.409H256.5Zm18.563.521a1.652,1.652,0,0,0-.95.475,2.144,2.144,0,0,0-.723,1.175,16.4,16.4,0,0,1-5.4-3.617,18.19,18.19,0,0,1-7.416,3.935l-.136-.34a20.84,20.84,0,0,0,6.738-4.5,13.007,13.007,0,0,1-2.577-5.517h-.43a5.541,5.541,0,0,0-1.131.136l-.181-.882a8.626,8.626,0,0,0,2.1.2h5.539c.384-.43.52-.566.882-.973.746.52.972.678,1.65,1.2.158.136.226.226.226.317,0,.136-.294.272-1.13.52a17.479,17.479,0,0,1-3.256,5.02,13,13,0,0,0,6.218,2.464Zm-13.091-9.361c2.012-2.035,2.577-3.731,2.577-7.642a13.828,13.828,0,0,0-.09-1.561,13.286,13.286,0,0,1,1.719,1.131h3.007c.384-.43.52-.566.9-1.017.588.452.769.587,1.267,1.017.2.2.248.293.248.384,0,.158-.135.271-.837.632v4.115c0,.384.09.407,1.221.407.724,0,.95-.068,1.131-.317.18-.271.248-.542.949-3.3l.294.023-.2,2.917v.09c0,.339.023.362.475.588a.552.552,0,0,1,.272.475c0,.632-.611.791-3.053.791a5.06,5.06,0,0,1-2.17-.2c-.294-.18-.384-.452-.384-1.04V123.9c.022-.588.022-.791.022-1.4v-3.572H266.06c-.159,2.8-.384,3.844-1.153,5.087a7.891,7.891,0,0,1-2.758,2.691Zm3.166.95a9.791,9.791,0,0,0,2.8,4.748,14.069,14.069,0,0,0,2.668-4.748Z" transform="translate(-106.686 -116.668)"/>
        <path id="パス_8" data-name="パス 8" d="M304.9,121.216a11.321,11.321,0,0,0,1.967.18h4.884c.543-.61.724-.813,1.266-1.4.837.678,1.085.9,1.854,1.605a.289.289,0,0,1,.09.159.192.192,0,0,1-.158.159h-8.049a9.754,9.754,0,0,0-1.719.112Zm.95,3.03a8.672,8.672,0,0,0,1.764.18h2.917c.5-.542.633-.724,1.13-1.243a14.5,14.5,0,0,1,1.7,1.424.315.315,0,0,1,.09.2c0,.067-.09.135-.18.135h-5.653c-.678,0-.972.023-1.628.067Zm.068-6.1a10.994,10.994,0,0,0,1.7.158h3.12A17.778,17.778,0,0,1,312,116.965c.791.632,1.04.837,1.831,1.469.09.113.136.181.136.226,0,.09-.09.159-.226.159h-6.127a11.168,11.168,0,0,0-1.561.09Zm0,9.2a6.452,6.452,0,0,0,1.7.158h2.962c.5-.588.656-.769,1.153-1.357.724.633.95.837,1.628,1.493.09.112.135.18.135.226a.175.175,0,0,1-.18.158h-5.7a14.483,14.483,0,0,0-1.583.09ZM307.592,137c0,.361-.2.429-1.176.429-.271,0-.362-.068-.384-.294.045-1.131.09-3.911.09-5.992a16.094,16.094,0,0,0-.09-1.718c.768.475.994.632,1.74,1.176h3.234c.316-.362.656-.724.972-1.086l1.357,1.086a.87.87,0,0,1,.045.135.57.57,0,0,1,.045.158c0,.136-.249.408-.7.724v.633c0,1.673.023,3.776.067,4.477-.023.2-.067.295-.248.34a5.365,5.365,0,0,1-.927.09c-.249,0-.362-.09-.384-.293v-.973h-3.64Zm0-1.628h3.64v-4.251h-3.64Zm14.7-10.423a17.468,17.468,0,0,1,1.47-1.718c.882.724,1.154.95,1.968,1.718a.547.547,0,0,1,.135.294c0,.113-.135.2-.271.2H320c0,6.308,0,7.168.136,11.554-.023.181-.068.271-.2.316a4.423,4.423,0,0,1-1.153.136c-.316,0-.43-.068-.43-.316.068-2.668.113-6.127.113-10.219,0-.181,0-.837-.023-1.47h-2.782a11.362,11.362,0,0,0-1.831.113l-.136-.814a9.2,9.2,0,0,0,1.966.2h2.782c-.023-6.376-.023-6.625-.18-7.6.519.046.926.068,1.175.092,1.2.09,1.56.18,1.56.406,0,.2-.113.272-.995.588v6.512Z" transform="translate(-128.141 -116.603)"/>
        <path id="パス_9" data-name="パス 9" d="M39.289,182.7a8.348,8.348,0,0,1-1.015.1c-.3,0-.375-.158-.414-.818a2.461,2.461,0,0,1-.483.423,1.947,1.947,0,0,1-1.281.424,1.492,1.492,0,0,1-1-.306,1.416,1.416,0,0,1-.434-1.045c0-.778.492-1.281,1.448-1.5a10.823,10.823,0,0,1,1.754-.237v-.621a1.993,1.993,0,0,0-.138-.9.821.821,0,0,0-.808-.384c-.65,0-.986.3-1.024.907-.01.206-.03.275-.109.334a.631.631,0,0,1-.345.079c-.335,0-.483-.088-.483-.3a1.169,1.169,0,0,1,.671-.946,2.952,2.952,0,0,1,1.438-.315,1.324,1.324,0,0,1,1.606,1.547c0,.03,0,.03-.02,1l-.009.936-.01.453a2.218,2.218,0,0,0,.109.848c.059.079.177.108.552.108Zm-1.429-2.73a4.272,4.272,0,0,0-1.655.355,1.16,1.16,0,0,0-.661,1.123c0,.621.335,1.045.828,1.045a1.51,1.51,0,0,0,1.261-.72,2.756,2.756,0,0,0,.227-1.339Z" transform="translate(-14.566 -142.089)"/>
        <path id="パス_10" data-name="パス 10" d="M51.88,177.636c.02.493.03.62.03.828v.315a1.67,1.67,0,0,1,1.438-1.173.679.679,0,0,1,.749.611c0,.246-.206.4-.522.4-.217,0-.306-.059-.365-.246-.06-.217-.118-.276-.277-.276a.965.965,0,0,0-.739.591,2.567,2.567,0,0,0-.266,1.252v1.547c0,.926.049,1,.71,1.015v.217H50.382V182.5c.66-.019.719-.1.719-1.015v-2.641c0-.739-.118-.887-.68-.887v-.217Z" transform="translate(-21.174 -142.089)"/>
        <path id="パス_11" data-name="パス 11" d="M68.69,181.46a2.1,2.1,0,0,1-2.03,1.389,2.348,2.348,0,0,1-2.355-2.552,2.43,2.43,0,0,1,2.415-2.69,2.212,2.212,0,0,1,1.458.5,1.172,1.172,0,0,1,.424.778c0,.188-.188.306-.493.306a.546.546,0,0,1-.335-.1c-.059-.059-.059-.079-.079-.335a.986.986,0,0,0-1.035-.907c-.9,0-1.429.828-1.429,2.247,0,1.5.621,2.414,1.646,2.414a1.689,1.689,0,0,0,1.586-1.192Z" transform="translate(-27.026 -142.089)"/>
        <path id="パス_12" data-name="パス 12" d="M80.962,177.132a1.839,1.839,0,0,1,1.754-1.054,1.47,1.47,0,0,1,1.439.709,3.018,3.018,0,0,1,.177,1.2v1.971c0,.916.049,1,.71,1.015v.217H82.8v-.217c.67-.019.719-.088.719-1.015V177.98a2.467,2.467,0,0,0-.158-1.064.877.877,0,0,0-.867-.473,1.329,1.329,0,0,0-.975.384,2.175,2.175,0,0,0-.464.808,2.252,2.252,0,0,0-.1.74v1.586c0,.926.049,1,.71,1.015v.217H79.434v-.217c.67-.019.72-.088.72-1.015v-4.8c0-.838-.04-.888-.72-.9v-.217l1.577-.079c-.039.749-.049,1.114-.049,1.971Z" transform="translate(-33.384 -140.56)"/>
        <path id="パス_13" data-name="パス 13" d="M98.337,176.143c-.03.572-.059,1.428-.059,1.842V180c0,.916.049,1,.71,1.015v.217H96.741v-.217c.68-.019.729-.1.729-1.015v-2.631c0-.493-.04-.719-.148-.808-.079-.069-.237-.089-.581-.089v-.216Zm-.492-2.089a.557.557,0,1,1-.562.551.551.551,0,0,1,.562-.551" transform="translate(-40.657 -140.596)"/>
        <path id="パス_14" data-name="パス 14" d="M109.92,180.371a1.893,1.893,0,0,0,.128.976.548.548,0,0,0,.483.206,1.149,1.149,0,0,0,.621-.177l.088.256a2.093,2.093,0,0,1-.995.246,1.074,1.074,0,0,1-1.015-.483,2.329,2.329,0,0,1-.138-1.143V177.06h-.621v-.227c.581-.049.877-.434,1.025-1.359l.453-.129c-.02.424-.03.8-.03,1.449H111.1v.266H109.92Z" transform="translate(-45.587 -141.139)"/>
        <path id="パス_15" data-name="パス 15" d="M121.88,179.942a3.956,3.956,0,0,0,.226,1.478,1.491,1.491,0,0,0,1.478,1.084,1.781,1.781,0,0,0,1.626-1.113l.227.128a2.139,2.139,0,0,1-2.079,1.33,2.353,2.353,0,0,1-2.375-2.553,2.406,2.406,0,0,1,2.335-2.69,1.9,1.9,0,0,1,1.882,1.251,3.129,3.129,0,0,1,.158,1.084Zm2.621-.266a2.6,2.6,0,0,0-.187-1.094,1.069,1.069,0,0,0-1.015-.729,1.27,1.27,0,0,0-1.133.769,2.755,2.755,0,0,0-.266,1.055Z" transform="translate(-50.846 -142.089)"/>
        <path id="パス_16" data-name="パス 16" d="M141.127,181.46a2.1,2.1,0,0,1-2.03,1.389,2.348,2.348,0,0,1-2.355-2.552,2.43,2.43,0,0,1,2.414-2.69,2.21,2.21,0,0,1,1.459.5,1.171,1.171,0,0,1,.424.778c0,.188-.188.306-.493.306a.547.547,0,0,1-.335-.1c-.059-.059-.059-.079-.079-.335a.986.986,0,0,0-1.034-.907c-.9,0-1.429.828-1.429,2.247,0,1.5.62,2.414,1.646,2.414a1.69,1.69,0,0,0,1.586-1.192Z" transform="translate(-57.469 -142.089)"/>
        <path id="パス_17" data-name="パス 17" d="M153.558,180.371a1.893,1.893,0,0,0,.128.976.548.548,0,0,0,.483.206,1.149,1.149,0,0,0,.621-.177l.088.256a2.093,2.093,0,0,1-.995.246,1.074,1.074,0,0,1-1.015-.483,2.329,2.329,0,0,1-.138-1.143V177.06h-.621v-.227c.581-.049.877-.434,1.025-1.359l.453-.129c-.02.424-.03.8-.03,1.449h1.183v.266h-1.183Z" transform="translate(-63.927 -141.139)"/>
        <path id="パス_18" data-name="パス 18" d="M168.074,182.819a8.041,8.041,0,0,1-.049-1.016,2.006,2.006,0,0,1-1.754,1.064,1.314,1.314,0,0,1-1.311-.828,4.8,4.8,0,0,1-.138-1.528v-1.626c0-.512-.039-.719-.148-.808-.059-.059-.148-.079-.335-.089h-.178v-.216l1.528-.1c-.049.916-.059,1.152-.059,1.833v.858a4.606,4.606,0,0,0,.137,1.605.766.766,0,0,0,.8.552,1.422,1.422,0,0,0,1.281-.955,2.431,2.431,0,0,0,.177-1.163v-1.518c0-.522-.03-.71-.148-.8a.5.5,0,0,0-.335-.1h-.178v-.216l1.528-.1c-.03.739-.049,1.389-.049,1.833v1.862c0,.986.089,1.163.6,1.163h.069v.217Z" transform="translate(-68.993 -142.118)"/>
        <path id="パス_19" data-name="パス 19" d="M182.557,177.636c.02.493.03.62.03.828v.315a1.67,1.67,0,0,1,1.438-1.173.679.679,0,0,1,.749.611c0,.246-.206.4-.522.4-.216,0-.306-.059-.365-.246-.059-.217-.118-.276-.276-.276a.964.964,0,0,0-.739.591,2.56,2.56,0,0,0-.266,1.252v1.547c0,.926.049,1,.709,1.015v.217H181.06V182.5c.66-.019.719-.1.719-1.015v-2.641c0-.739-.119-.887-.681-.887v-.217Z" transform="translate(-76.094 -142.089)"/>
        <path id="パス_20" data-name="パス 20" d="M195.847,179.942a3.933,3.933,0,0,0,.226,1.478,1.49,1.49,0,0,0,1.478,1.084,1.781,1.781,0,0,0,1.626-1.113l.227.128a2.139,2.139,0,0,1-2.08,1.33,2.352,2.352,0,0,1-2.374-2.553,2.406,2.406,0,0,1,2.335-2.69,1.9,1.9,0,0,1,1.883,1.251,3.143,3.143,0,0,1,.158,1.084Zm2.621-.266a2.608,2.608,0,0,0-.188-1.094,1.069,1.069,0,0,0-1.015-.729,1.27,1.27,0,0,0-1.133.769,2.755,2.755,0,0,0-.266,1.055Z" transform="translate(-81.932 -142.089)"/>
        <path id="パス_21" data-name="パス 21" d="M227.589,173.969c-.039.63-.059,1.2-.059,1.96v3.814c.02.926.02.936.069,1.055s.178.176.463.176h.108v.217l-1.38.079-.039-.857a1.878,1.878,0,0,1-1.676.917,1.917,1.917,0,0,1-1.448-.681,2.881,2.881,0,0,1-.561-1.833c0-1.626.906-2.739,2.226-2.739a1.748,1.748,0,0,1,1.429.66V175.25c0-.956-.009-.976-.729-.986v-.217Zm-2.237,2.355c-.887,0-1.37.837-1.37,2.384,0,1.528.443,2.336,1.281,2.336.936,0,1.488-.867,1.488-2.345,0-1.528-.5-2.375-1.4-2.375" transform="translate(-93.749 -140.56)"/>
        <path id="パス_22" data-name="パス 22" d="M240.809,179.942a3.956,3.956,0,0,0,.226,1.478,1.492,1.492,0,0,0,1.479,1.084,1.781,1.781,0,0,0,1.626-1.113l.226.128a2.139,2.139,0,0,1-2.079,1.33,2.353,2.353,0,0,1-2.375-2.553,2.406,2.406,0,0,1,2.336-2.69,1.9,1.9,0,0,1,1.882,1.251,3.14,3.14,0,0,1,.158,1.084Zm2.621-.266a2.61,2.61,0,0,0-.187-1.094,1.07,1.07,0,0,0-1.015-.729,1.271,1.271,0,0,0-1.133.769,2.765,2.765,0,0,0-.266,1.055Z" transform="translate(-100.828 -142.089)"/>
        <path id="パス_23" data-name="パス 23" d="M255.744,181.164h.306a1.578,1.578,0,0,0,.276.916,1.257,1.257,0,0,0,1.074.532c.671,0,1.075-.345,1.075-.926a.764.764,0,0,0-.236-.572,4.038,4.038,0,0,0-1.1-.551c-1.064-.463-1.389-.818-1.389-1.488a1.566,1.566,0,0,1,.266-.907,1.524,1.524,0,0,1,1.221-.562,4.314,4.314,0,0,1,.917.118,1.69,1.69,0,0,0,.207.021,2.042,2.042,0,0,0,.473-.07l-.049,1.557h-.325c-.02-.878-.453-1.4-1.173-1.4a.888.888,0,0,0-1.005.877.619.619,0,0,0,.266.532,4.72,4.72,0,0,0,1.025.512,2.866,2.866,0,0,1,1.133.671,1.364,1.364,0,0,1,.325.936,1.413,1.413,0,0,1-1.528,1.488,5.054,5.054,0,0,1-.985-.118,2.571,2.571,0,0,0-.365-.03,2.985,2.985,0,0,0-.443.039Z" transform="translate(-107.465 -142.089)"/>
        <path id="パス_24" data-name="パス 24" d="M271.174,176.143c-.03.572-.06,1.428-.06,1.842V180c0,.916.05,1,.71,1.015v.217h-2.246v-.217c.679-.019.729-.1.729-1.015v-2.631c0-.493-.039-.719-.148-.808-.079-.069-.237-.089-.581-.089v-.216Zm-.493-2.089a.557.557,0,1,1-.562.551.551.551,0,0,1,.562-.551" transform="translate(-113.296 -140.596)"/>
        <path id="パス_25" data-name="パス 25" d="M285,178.079a1.792,1.792,0,0,1,.562,1.321,1.727,1.727,0,0,1-1.951,1.714,3.249,3.249,0,0,1-.867-.118c-.365.2-.512.365-.512.591,0,.374.256.492,1.084.492h.69a5.1,5.1,0,0,1,1.261.1,1.022,1.022,0,0,1,.818,1.064,1.449,1.449,0,0,1-.739,1.222,3.424,3.424,0,0,1-1.745.374,3.13,3.13,0,0,1-1.527-.306.983.983,0,0,1-.532-.956c0-.413.079-.512.69-.907a.908.908,0,0,1-.621-.867c0-.276.089-.4.473-.67l.384-.257a1.911,1.911,0,0,1-.492-.423,1.619,1.619,0,0,1-.315-1.015,1.74,1.74,0,0,1,.768-1.538,2.381,2.381,0,0,1,1.212-.3,3.439,3.439,0,0,1,.66.069,3.2,3.2,0,0,0,.621.059c.246,0,.541-.01,1.074-.029v.374ZM282.2,183.49c0,.729.522,1.113,1.527,1.113,1.055,0,1.7-.434,1.7-1.123,0-.414-.227-.631-.759-.72a8.883,8.883,0,0,0-1.123-.039c-.345,0-.936.01-.946.019-.276.1-.4.335-.4.75m.522-3.065a1,1,0,0,0,.9.473c.719,0,1.1-.522,1.1-1.5,0-1.035-.375-1.567-1.1-1.567s-1.124.5-1.124,1.488a2.358,2.358,0,0,0,.227,1.1" transform="translate(-118.325 -142.089)"/>
        <path id="パス_26" data-name="パス 26" d="M298.39,178.651a1.769,1.769,0,0,1,1.734-1.045,1.367,1.367,0,0,1,1.292.611,2.124,2.124,0,0,1,.256,1.231v2.041c0,.926.049.995.719,1.015v.217h-2.237V182.5c.325-.01.5-.049.581-.147a.541.541,0,0,0,.1-.326c.009-.108.03-.472.03-.541v-1.981a2.584,2.584,0,0,0-.158-1.064.878.878,0,0,0-.867-.523,1.259,1.259,0,0,0-1.114.66,2.4,2.4,0,0,0-.335,1.2v1.706c0,.926.049.995.719,1.015v.217h-2.247V182.5c.661-.02.719-.1.719-1.015v-2.641c0-.739-.118-.887-.68-.887v-.216l1.488-.109Z" transform="translate(-124.762 -142.089)"/>
      </g>
    </g>
  </g>
</svg>
