<svg id="logo-mark" xmlns="http://www.w3.org/2000/svg" width="191.385" height="59.82" viewBox="0 0 191.385 59.82">
  <path id="長方形_1" data-name="長方形 1" d="M1.417,0H14.548a1.417,1.417,0,0,1,1.417,1.417V38.945a1.418,1.418,0,0,1-1.418,1.418H1.418A1.418,1.418,0,0,1,0,38.945V1.417A1.417,1.417,0,0,1,1.417,0Z" transform="translate(0 19.456)" fill="#adaeae"/>
  <path id="長方形_2" data-name="長方形 2" d="M1.417,0H77.9A1.417,1.417,0,0,1,79.32,1.417v13.13A1.418,1.418,0,0,1,77.9,15.965H1.417A1.417,1.417,0,0,1,0,14.548V1.417A1.417,1.417,0,0,1,1.417,0Z" transform="translate(58.459 0)" fill="#adaeae"/>
  <path id="長方形_3" data-name="長方形 3" d="M1.417,0H51.011a1.417,1.417,0,0,1,1.417,1.417V26.7a1.418,1.418,0,0,1-1.418,1.418H1.417A1.417,1.417,0,0,1,0,26.7V1.417A1.417,1.417,0,0,1,1.417,0Z" transform="translate(92.608 31.702)" fill="#adaeae"/>
  <path id="長方形_4" data-name="長方形 4" d="M1.417,0H29.2a1.417,1.417,0,0,1,1.417,1.417V42.8a1.418,1.418,0,0,1-1.418,1.418H1.417A1.417,1.417,0,0,1,0,42.8V1.417A1.417,1.417,0,0,1,1.417,0Z" transform="translate(160.772 0)" fill="#adaeae"/>
  <path id="長方形_5" data-name="長方形 5" d="M1.417,0H14.548a1.417,1.417,0,0,1,1.417,1.417v13.13a1.418,1.418,0,0,1-1.418,1.418H1.418A1.418,1.418,0,0,1,0,14.547V1.417A1.417,1.417,0,0,1,1.417,0Z" transform="translate(0 0)" fill="#adaeae"/>
  <path id="パス_1" data-name="パス 1" d="M70.8,0a1.075,1.075,0,0,0-1.072,1.071V58.748A1.075,1.075,0,0,0,70.8,59.82h67.426a1.075,1.075,0,0,0,1.072-1.072V29.236a1.074,1.074,0,0,1,1.071-1.071h57.36a1.074,1.074,0,0,1,1.071,1.071V58.748a1.075,1.075,0,0,0,1.071,1.072H240.54a1.075,1.075,0,0,0,1.071-1.072v-9.92a1.074,1.074,0,0,0-1.071-1.071H208.533a1.075,1.075,0,0,1-1.071-1.072V20.528a1.075,1.075,0,0,0-1.071-1.072H106.219a1.074,1.074,0,0,1-1.071-1.071V1.071A1.075,1.075,0,0,0,104.076,0Z" transform="translate(-50.227)" fill="#adaeae"/>
</svg>
